<svg xmlns="http://www.w3.org/2000/svg" xmlns:xlink="http://www.w3.org/1999/xlink" width="114.005" height="114.115" viewBox="0 0 114.005 114.115">
  <defs>
    <clipPath id="clip-path">
      <path id="Shape" d="M51.143,114.115h0A57.113,57.113,0,0,1,20.686,101.2l8.172-7.829a45.659,45.659,0,0,0,22.285,9.314v11.428Zm11.429-.4h0V102.286a44.854,44.854,0,0,0,14.62-4.326,45.369,45.369,0,0,0,12.08-8.681,45.747,45.747,0,0,0-9.469-72,45.452,45.452,0,0,0-17.231-5.739V0a57.132,57.132,0,0,1,0,113.714ZM12.686,93.143h0A57.363,57.363,0,0,1,.058,62.686H11.486A45.674,45.674,0,0,0,20.8,84.972l-8.114,8.17ZM11.428,51.257H0A56.48,56.48,0,0,1,12.629,20.8L20.8,28.971a45.843,45.843,0,0,0-9.372,22.285ZM28.858,21.2h0l-8.171-8.457A55.246,55.246,0,0,1,34.993,4.165,57.09,57.09,0,0,1,51.143.172V11.6a45.675,45.675,0,0,0-22.284,9.6Z" transform="translate(0.286 0.172)" fill="#1e1f20"/>
    </clipPath>
  </defs>
  <g id="Group_521" data-name="Group 521" transform="translate(-0.286 -0.172)">
    <g id="Icon_Check-In-Progress" data-name="Icon/Check-In-Progress">
      <path id="Shape-2" data-name="Shape" d="M51.143,114.115h0A57.113,57.113,0,0,1,20.686,101.2l8.172-7.829a45.659,45.659,0,0,0,22.285,9.314v11.428Zm11.429-.4h0V102.286a44.854,44.854,0,0,0,14.62-4.326,45.369,45.369,0,0,0,12.08-8.681,45.747,45.747,0,0,0-9.469-72,45.452,45.452,0,0,0-17.231-5.739V0a57.132,57.132,0,0,1,0,113.714ZM12.686,93.143h0A57.363,57.363,0,0,1,.058,62.686H11.486A45.674,45.674,0,0,0,20.8,84.972l-8.114,8.17ZM11.428,51.257H0A56.48,56.48,0,0,1,12.629,20.8L20.8,28.971a45.843,45.843,0,0,0-9.372,22.285ZM28.858,21.2h0l-8.171-8.457A55.246,55.246,0,0,1,34.993,4.165,57.09,57.09,0,0,1,51.143.172V11.6a45.675,45.675,0,0,0-22.284,9.6Z" transform="translate(0.286 0.172)" fill="#fa7096"/>
      <path id="Vector" d="M35.556,0,40,4.444,24.444,20,40,35.556,35.556,40,20,24.444,4.444,40,0,35.556,15.556,20,0,4.444,4.444,0,20,15.556Z" transform="translate(37 37)" fill="#fa7096"/>
      <path id="Shape-3" data-name="Shape" d="M51.143,114.115h0A57.113,57.113,0,0,1,20.686,101.2l8.172-7.829a45.659,45.659,0,0,0,22.285,9.314v11.428Zm11.429-.4h0V102.286a44.854,44.854,0,0,0,14.62-4.326,45.369,45.369,0,0,0,12.08-8.681,45.747,45.747,0,0,0-9.469-72,45.452,45.452,0,0,0-17.231-5.739V0a57.132,57.132,0,0,1,0,113.714ZM12.686,93.143h0A57.363,57.363,0,0,1,.058,62.686H11.486A45.674,45.674,0,0,0,20.8,84.972l-8.114,8.17ZM11.428,51.257H0A56.48,56.48,0,0,1,12.629,20.8L20.8,28.971a45.843,45.843,0,0,0-9.372,22.285ZM28.858,21.2h0l-8.171-8.457A55.246,55.246,0,0,1,34.993,4.165,57.09,57.09,0,0,1,51.143.172V11.6a45.675,45.675,0,0,0-22.284,9.6Z" transform="translate(0.286 0.172)" fill="#1e1f20"/>
    </g>
  </g>
</svg>
